<svg xmlns="http://www.w3.org/2000/svg" version="1.1" xmlns:xlink="http://www.w3.org/1999/xlink" xmlns:svgjs="http://svgjs.dev/svgjs" viewBox="0 0 8.82719401259343 2.271283730108256"><g transform="matrix(1,0,0,1,3.277205005622997,0.718585615054128)"><g><path d=" M 0.5545410000000001 0.4935645 Q 0.6109155000000001 0.5464875 0.6109155000000001 0.6247215 Q 0.6109155000000001 0.6845475000000001 0.5781262500000001 0.7334437500000001 Q 0.5453370000000001 0.78234 0.48723675 0.81052725 Q 0.42913650000000003 0.8387145 0.3578055 0.8387145 Q 0.32444100000000003 0.8387145 0.280722 0.8352630000000001 Q 0.2657655 0.8341125 0.2427555 0.832962 Q 0.2197455 0.8318115 0.190983 0.8318115 L 0.10814700000000001 0.832962 Q 0.0862875 0.8341125 0.048321 0.8341125 Q 0.0448695 0.8341125 0.0448695 0.8272095 Q 0.0448695 0.8203065 0.048321 0.8203065 Q 0.085137 0.8203065 0.103545 0.8139787500000001 Q 0.121953 0.807651 0.12943125 0.791544 Q 0.13690950000000002 0.775437 0.13690950000000002 0.7409220000000001 L 0.13690950000000002 0.20824050000000005 Q 0.13690950000000002 0.17487600000000003 0.12943125 0.15819375000000002 Q 0.121953 0.1415115 0.10412025 0.13518375000000005 Q 0.0862875 0.12885599999999997 0.0494715 0.12885599999999997 Q 0.047170500000000004 0.12885599999999997 0.047170500000000004 0.12195299999999998 Q 0.047170500000000004 0.11504999999999999 0.0494715 0.11504999999999999 L 0.1092975 0.11620050000000004 Q 0.15991950000000002 0.11850150000000004 0.190983 0.11850150000000004 Q 0.223197 0.11850150000000004 0.2588625 0.11504999999999999 Q 0.27151800000000004 0.11389950000000004 0.28935075 0.11274899999999999 Q 0.3071835 0.11159850000000004 0.33019350000000003 0.11159850000000004 Q 0.43258800000000003 0.11159850000000004 0.48723675 0.15129075000000003 Q 0.5418855 0.190983 0.5418855 0.2611635 Q 0.5418855 0.315237 0.50564475 0.3601065 Q 0.46940400000000004 0.404976 0.4038255 0.43028700000000003 Q 0.4981665 0.4406415 0.5545410000000001 0.4935645 M 0.26058825 0.14956500000000006 Q 0.2473575 0.1645215 0.2473575 0.21054150000000005 L 0.2473575 0.42913650000000003 L 0.2956785 0.43028700000000003 Q 0.363558 0.43028700000000003 0.398073 0.38599275 Q 0.43258800000000003 0.3416985 0.43258800000000003 0.27151800000000004 Q 0.43258800000000003 0.20593950000000005 0.4015245 0.17027400000000004 Q 0.37046100000000004 0.13460850000000002 0.310635 0.13460850000000002 Q 0.27381900000000003 0.13460850000000002 0.26058825 0.14956500000000006 M 0.494715 0.6523335 Q 0.494715 0.5648955 0.44927025000000004 0.5119724999999999 Q 0.4038255 0.4590495 0.3163875 0.4590495 Q 0.27496950000000003 0.4590495 0.2473575 0.4613505 L 0.2473575 0.7409220000000001 Q 0.2473575 0.7673835 0.2542605 0.78234 Q 0.2611635 0.7972965000000001 0.280722 0.80477475 Q 0.3002805 0.812253 0.3393975 0.812253 Q 0.494715 0.812253 0.494715 0.6523335 M 0.9815005382812501 0.8162797500000001 Q 0.92857753828125 0.7834905000000001 0.8998150382812501 0.72769125 Q 0.8710525382812501 0.671892 0.8710525382812501 0.6063135000000001 Q 0.8710525382812501 0.531531 0.90844378828125 0.47918325 Q 0.94583503828125 0.42683550000000003 1.00393528828125 0.40094925000000003 Q 1.06203553828125 0.37506300000000004 1.12301203828125 0.37506300000000004 Q 1.19319253828125 0.37506300000000004 1.24554028828125 0.4084275 Q 1.29788803828125 0.441792 1.32550003828125 0.49644075000000004 Q 1.35311203828125 0.5510895 1.35311203828125 0.6132165 Q 1.35311203828125 0.6822465 1.31917228828125 0.7363200000000001 Q 1.28523253828125 0.7903935000000001 1.2277075382812501 0.81973125 Q 1.17018253828125 0.8490690000000001 1.10345353828125 0.8490690000000001 Q 1.03442353828125 0.8490690000000001 0.9815005382812501 0.8162797500000001 M 1.21562728828125 0.7811895 Q 1.2426640382812502 0.7363200000000001 1.2426640382812502 0.6500325 Q 1.2426640382812502 0.572949 1.22137978828125 0.5154240000000001 Q 1.20009553828125 0.457899 1.16385478828125 0.42798600000000003 Q 1.12761403828125 0.398073 1.08504553828125 0.398073 Q 1.03327303828125 0.398073 1.0068115382812501 0.4406415 Q 0.98035003828125 0.48321000000000003 0.98035003828125 0.566046 Q 0.98035003828125 0.6408285 1.00048378828125 0.70007925 Q 1.0206175382812501 0.7593300000000001 1.05685828828125 0.7926945000000001 Q 1.09309903828125 0.826059 1.13796853828125 0.826059 Q 1.18859053828125 0.826059 1.21562728828125 0.7811895 M 1.703005491357422 0.8162797500000001 Q 1.6500824913574221 0.7834905000000001 1.621319991357422 0.72769125 Q 1.592557491357422 0.671892 1.592557491357422 0.6063135000000001 Q 1.592557491357422 0.531531 1.629948741357422 0.47918325 Q 1.667339991357422 0.42683550000000003 1.7254402413574221 0.40094925000000003 Q 1.783540491357422 0.37506300000000004 1.844516991357422 0.37506300000000004 Q 1.9146974913574222 0.37506300000000004 1.9670452413574222 0.4084275 Q 2.0193929913574222 0.441792 2.047004991357422 0.49644075000000004 Q 2.074616991357422 0.5510895 2.074616991357422 0.6132165 Q 2.074616991357422 0.6822465 2.040677241357422 0.7363200000000001 Q 2.006737491357422 0.7903935000000001 1.949212491357422 0.81973125 Q 1.891687491357422 0.8490690000000001 1.8249584913574222 0.8490690000000001 Q 1.755928491357422 0.8490690000000001 1.703005491357422 0.8162797500000001 M 1.9371322413574221 0.7811895 Q 1.964168991357422 0.7363200000000001 1.964168991357422 0.6500325 Q 1.964168991357422 0.572949 1.942884741357422 0.5154240000000001 Q 1.921600491357422 0.457899 1.8853597413574221 0.42798600000000003 Q 1.8491189913574222 0.398073 1.806550491357422 0.398073 Q 1.7547779913574222 0.398073 1.728316491357422 0.4406415 Q 1.7018549913574221 0.48321000000000003 1.7018549913574221 0.566046 Q 1.7018549913574221 0.6408285 1.7219887413574222 0.70007925 Q 1.742122491357422 0.7593300000000001 1.7783632413574222 0.7926945000000001 Q 1.8146039913574221 0.826059 1.859473491357422 0.826059 Q 1.910095491357422 0.826059 1.9371322413574221 0.7811895 M 2.845593444433594 0.8272095 Q 2.845593444433594 0.8341125 2.8421419444335942 0.8341125 Q 2.8133794444335942 0.8341125 2.7961219444335943 0.832962 L 2.7305434444335943 0.8318115 L 2.6442559444335942 0.832962 Q 2.624697444433594 0.8341125 2.591332944433594 0.8341125 Q 2.5890319444335943 0.8341125 2.5890319444335943 0.8272095 Q 2.5890319444335943 0.8203065 2.591332944433594 0.8203065 Q 2.638503444433594 0.8203065 2.638503444433594 0.796146 Q 2.638503444433594 0.7857915 2.6292994444335944 0.773136 L 2.4946909444335943 0.595959 L 2.460175944433594 0.625872 L 2.460175944433594 0.7409220000000001 Q 2.460175944433594 0.7880925000000001 2.4734066944335944 0.8041995000000001 Q 2.4866374444335944 0.8203065 2.525754444433594 0.8203065 Q 2.530356444433594 0.8203065 2.530356444433594 0.8272095 Q 2.530356444433594 0.8341125 2.525754444433594 0.8341125 Q 2.4969919444335944 0.8341125 2.479734444433594 0.832962 L 2.414155944433594 0.8318115 L 2.348577444433594 0.832962 Q 2.331319944433594 0.8341125 2.302557444433594 0.8341125 Q 2.2991059444335944 0.8341125 2.2991059444335944 0.8272095 Q 2.2991059444335944 0.8203065 2.302557444433594 0.8203065 Q 2.340523944433594 0.8203065 2.3543299444335943 0.80362425 Q 2.368135944433594 0.786942 2.368135944433594 0.7409220000000001 L 2.368135944433594 0.1530165 Q 2.368135944433594 0.11274899999999999 2.360082444433594 0.09491625000000004 Q 2.3520289444335942 0.07708349999999997 2.3336209444335942 0.07708349999999997 Q 2.3163634444335943 0.07708349999999997 2.2864504444335942 0.09088949999999996 L 2.285299944433594 0.09088949999999996 Q 2.281848444433594 0.09088949999999996 2.278972194433594 0.08456174999999999 Q 2.276095944433594 0.07823400000000003 2.2795474444335944 0.07708349999999997 L 2.4394669444335944 0.0011505000000000543 L 2.445219444433594 0 Q 2.4498214444335944 0 2.454998694433594 0.004601999999999995 Q 2.460175944433594 0.00920399999999999 2.460175944433594 0.012655500000000042 L 2.460175944433594 0.6017115000000001 L 2.583279444433594 0.4912635 Q 2.615493444433594 0.4636515 2.615493444433594 0.43719 Q 2.615493444433594 0.42223350000000004 2.6022626944335943 0.4130295 Q 2.5890319444335943 0.4038255 2.564871444433594 0.4038255 Q 2.5614199444335943 0.4038255 2.5614199444335943 0.3969225 Q 2.5614199444335943 0.3900195 2.564871444433594 0.3900195 Q 2.5970854444335942 0.3900195 2.615493444433594 0.39117 L 2.7029314444335943 0.3923205 L 2.784616944433594 0.39117 Q 2.800723944433594 0.3900195 2.8283359444335945 0.3900195 Q 2.831787444433594 0.3900195 2.831787444433594 0.3969225 Q 2.831787444433594 0.4038255 2.8283359444335945 0.4038255 Q 2.7811654444335945 0.4038255 2.7213394444335943 0.42741075 Q 2.661513444433594 0.450996 2.6108914444335944 0.4958655 L 2.5614199444335943 0.5384340000000001 L 2.714436444433594 0.7409220000000001 Q 2.746650444433594 0.7834905000000001 2.7777139444335943 0.8018985000000001 Q 2.808777444433594 0.8203065 2.8421419444335942 0.8203065 Q 2.845593444433594 0.8203065 2.845593444433594 0.8272095 M 3.238061015185547 0.7363200000000001 Q 3.238061015185547 0.7673835 3.243238265185547 0.7811895 Q 3.248415515185547 0.7949955000000001 3.263372015185547 0.7995975000000001 Q 3.2783285151855472 0.8041995000000001 3.311693015185547 0.8041995000000001 L 3.380723015185547 0.8041995000000001 Q 3.462408515185547 0.8041995000000001 3.518783015185547 0.75875475 Q 3.575157515185547 0.71331 3.5935655151855475 0.6362265 Q 3.594716015185547 0.6327750000000001 3.6004685151855473 0.63335025 Q 3.606221015185547 0.6339255 3.606221015185547 0.6373770000000001 Q 3.595866515185547 0.7455240000000001 3.595866515185547 0.816855 Q 3.595866515185547 0.826059 3.592415015185547 0.8300857500000001 Q 3.5889635151855472 0.8341125 3.578609015185547 0.8341125 L 3.040175015185547 0.8341125 Q 3.037874015185547 0.8341125 3.037874015185547 0.8272095 Q 3.037874015185547 0.8203065 3.040175015185547 0.8203065 Q 3.079292015185547 0.8203065 3.0971247651855474 0.814554 Q 3.114957515185547 0.8088015000000001 3.121285265185547 0.79211925 Q 3.1276130151855472 0.775437 3.1276130151855472 0.7409220000000001 L 3.1276130151855472 0.20824050000000005 Q 3.1276130151855472 0.17372549999999998 3.121285265185547 0.1576185 Q 3.114957515185547 0.1415115 3.096549515185547 0.13518375000000005 Q 3.078141515185547 0.12885599999999997 3.040175015185547 0.12885599999999997 Q 3.037874015185547 0.12885599999999997 3.037874015185547 0.12195299999999998 Q 3.037874015185547 0.11504999999999999 3.040175015185547 0.11504999999999999 L 3.098850515185547 0.11620050000000004 Q 3.149472515185547 0.11850150000000004 3.181686515185547 0.11850150000000004 Q 3.216201515185547 0.11850150000000004 3.266823515185547 0.11620050000000004 L 3.324348515185547 0.11504999999999999 Q 3.3278000151855474 0.11504999999999999 3.3278000151855474 0.12195299999999998 Q 3.3278000151855474 0.12885599999999997 3.324348515185547 0.12885599999999997 Q 3.286382015185547 0.12885599999999997 3.268549265185547 0.13518375000000005 Q 3.2507165151855473 0.1415115 3.244388765185547 0.15819375000000002 Q 3.238061015185547 0.17487600000000003 3.238061015185547 0.209391 L 3.238061015185547 0.7363200000000001 M 3.898005791748047 0.24160499999999996 Q 3.881323541748047 0.22549799999999998 3.881323541748047 0.195585 Q 3.881323541748047 0.16682249999999998 3.898005791748047 0.15129075000000003 Q 3.914688041748047 0.13575899999999996 3.944601041748047 0.13575899999999996 Q 3.973363541748047 0.13575899999999996 3.989470541748047 0.15129075000000003 Q 4.005577541748047 0.16682249999999998 4.005577541748047 0.195585 Q 4.005577541748047 0.22549799999999998 3.990045791748047 0.24160499999999996 Q 3.974514041748047 0.25771200000000005 3.944601041748047 0.25771200000000005 Q 3.914688041748047 0.25771200000000005 3.898005791748047 0.24160499999999996 M 3.835303541748047 0.8272095 Q 3.835303541748047 0.8203065 3.838755041748047 0.8203065 Q 3.877872041748047 0.8203065 3.890527541748047 0.8041995000000001 Q 3.903183041748047 0.7880925000000001 3.903183041748047 0.7409220000000001 L 3.903183041748047 0.531531 Q 3.903183041748047 0.492414 3.895129541748047 0.47458125 Q 3.887076041748047 0.4567485 3.867517541748047 0.4567485 Q 3.850260041748047 0.4567485 3.822648041748047 0.47055450000000004 L 3.821497541748047 0.47055450000000004 Q 3.816895541748047 0.47055450000000004 3.814594541748047 0.464802 Q 3.812293541748047 0.4590495 3.815745041748047 0.4567485 L 3.9814170417480472 0.37966500000000003 L 3.984868541748047 0.37851450000000003 Q 3.989470541748047 0.37851450000000003 3.994647791748047 0.38369175 Q 3.999825041748047 0.388869 3.999825041748047 0.3923205 L 3.999825041748047 0.416481 Q 3.997524041748047 0.464802 3.997524041748047 0.5303805 L 3.997524041748047 0.7409220000000001 Q 3.997524041748047 0.7880925000000001 4.010754791748047 0.8041995000000001 Q 4.023985541748047 0.8203065 4.063102541748047 0.8203065 Q 4.066554041748047 0.8203065 4.066554041748047 0.8272095 Q 4.066554041748047 0.8341125 4.063102541748047 0.8341125 Q 4.034340041748047 0.8341125 4.017082541748047 0.832962 L 3.950353541748047 0.8318115 L 3.883624541748047 0.832962 Q 3.867517541748047 0.8341125 3.838755041748047 0.8341125 Q 3.835303541748047 0.8341125 3.835303541748047 0.8272095 M 4.410083229931641 0.5096715 Q 4.434818979931641 0.5338320000000001 4.481989479931641 0.5602935 Q 4.523407479931641 0.5833035 4.54584222993164 0.59826 Q 4.568276979931641 0.6132165 4.58495922993164 0.6385275 Q 4.601641479931641 0.6638385 4.601641479931641 0.699504 Q 4.601641479931641 0.738621 4.5820829799316405 0.7719855 Q 4.562524479931641 0.80535 4.523982729931641 0.826059 Q 4.48544097993164 0.8467680000000001 4.4325179799316405 0.8467680000000001 Q 4.369240479931641 0.8467680000000001 4.316317479931641 0.814554 Q 4.3094144799316405 0.807651 4.3094144799316405 0.800748 L 4.30711347993164 0.694902 Q 4.30711347993164 0.6914505 4.313441229931641 0.69087525 Q 4.3197689799316406 0.6903 4.320919479931641 0.692601 Q 4.340477979931641 0.7501260000000001 4.3801702299316405 0.786942 Q 4.41986247993164 0.823758 4.46473197993164 0.823758 Q 4.49349447993164 0.823758 4.509601479931641 0.8088015000000001 Q 4.525708479931641 0.793845 4.525708479931641 0.763932 Q 4.525708479931641 0.720213 4.500397479931641 0.69432675 Q 4.47508647993164 0.6684405 4.426765479931641 0.6431295 Q 4.387648479931641 0.6224205 4.365788979931641 0.60803925 Q 4.34392947993164 0.593658 4.32839772993164 0.56892225 Q 4.312865979931641 0.5441865 4.312865979931641 0.5073705 Q 4.312865979931641 0.441792 4.360611729931641 0.409578 Q 4.408357479931641 0.37736400000000003 4.476236979931641 0.37736400000000003 Q 4.521106479931641 0.37736400000000003 4.568276979931641 0.3946215 Q 4.578631479931641 0.3992235 4.578631479931641 0.407277 Q 4.578631479931641 0.4337385 4.577480979931641 0.448695 L 4.576330479931641 0.503919 Q 4.576330479931641 0.5073705 4.56942747993164 0.5073705 Q 4.562524479931641 0.5073705 4.562524479931641 0.503919 Q 4.562524479931641 0.48090900000000003 4.544116479931641 0.45617325000000003 Q 4.525708479931641 0.43143750000000003 4.496945979931641 0.4153305 Q 4.468183479931641 0.3992235 4.43827047993164 0.3992235 Q 4.3853474799316405 0.3992235 4.3853474799316405 0.4498455 Q 4.3853474799316405 0.485511 4.410083229931641 0.5096715 M 5.174676879785157 0.7604805 Q 5.178128379785156 0.7604805 5.181004629785156 0.7650825 Q 5.183880879785156 0.7696845 5.180429379785156 0.7719855 Q 5.137860879785156 0.812253 5.099894379785156 0.8300857500000001 Q 5.061927879785156 0.8479185 5.019359379785156 0.8479185 Q 4.969887879785156 0.8479185 4.935948129785156 0.82433325 Q 4.902008379785156 0.800748 4.902008379785156 0.7455240000000001 L 4.902008379785156 0.485511 Q 4.902008379785156 0.4475445 4.889928129785156 0.434889 Q 4.877847879785156 0.42223350000000004 4.843332879785156 0.42223350000000004 Q 4.842182379785156 0.42223350000000004 4.840456629785156 0.41935725 Q 4.838730879785156 0.416481 4.838730879785156 0.4130295 Q 4.838730879785156 0.409578 4.840456629785156 0.40670175000000003 Q 4.842182379785156 0.4038255 4.843332879785156 0.4038255 Q 4.951479879785156 0.3992235 4.979091879785156 0.310635 Q 4.981392879785156 0.306033 4.9888711297851565 0.306033 Q 4.996349379785156 0.306033 4.996349379785156 0.310635 L 4.996349379785156 0.4015245 Q 5.050422879785156 0.400374 5.149365879785156 0.3900195 Q 5.151666879785156 0.3900195 5.154543129785156 0.39864825000000004 Q 5.157419379785156 0.407277 5.157419379785156 0.41763150000000004 Q 5.157419379785156 0.42798600000000003 5.153392629785156 0.4383405 Q 5.149365879785156 0.448695 5.144763879785156 0.4475445 Q 5.0803358797851565 0.43258800000000003 4.996349379785156 0.42913650000000003 L 4.996349379785156 0.7075575000000001 Q 4.996349379785156 0.7524270000000001 5.018784129785156 0.7737112500000001 Q 5.0412188797851565 0.7949955000000001 5.081486379785156 0.7949955000000001 Q 5.129807379785156 0.7949955000000001 5.1723758797851564 0.7616310000000001 L 5.174676879785157 0.7604805" fill="#fbecac" fill-rule="nonzero"></path></g><g></g><g clip-path="url(&quot;#SvgjsClipPath1010&quot;)"><g clip-path="url(&quot;#a14b1099e-ea42-420f-9545-9e4d123e91a0d23e37ff-74f3-4427-aad5-508ec9cd8613&quot;)"><path d=" M -2.2792049767874327 0.15200120151751884 C -2.2959054124852853 0.1190441955224209 -2.3017311458682572 0.07754278056563085 -2.299844717915676 0.04547350537174766 C -2.2946292994585393 -0.04440923825124682 -2.244694441890209 -0.09695180504814538 -2.1674063790094493 -0.13972933303168159 C -2.0777455680867583 -0.18938677472463222 -1.9363744379933079 -0.16430837959031522 -1.9107412111082318 -0.14505571783897014 C -1.9107412111082318 -0.14505571783897014 -1.9107412111082318 -0.17867852193497916 -1.928384860782375 -0.19310414745471902 C -1.928384860782375 -0.19310414745471902 -1.8867724794754333 -0.15948134335871 -1.8835544553210297 -0.13545712855083553 C -1.8835544553210297 -0.12746755133990276 -1.8179178592062133 -0.13545712855083553 -1.8179178592062133 -0.13545712855083553 L -1.8621934329167995 -0.10771554101287434 C -1.8621934329167995 -0.10771554101287434 -1.8067102578408771 -0.07786559282202804 -1.8259074364171464 0.08192595139662873 C -1.8259074364171464 0.15238958374305023 -1.833897013628079 0.1844033757618575 -1.8163088471290119 0.19400196504999212 L -1.8307344726487513 0.19721998920439565 C -1.8307344726487513 0.19721998920439565 -1.8179178592062133 0.23400533427973214 -1.793893644398339 0.25481152493320314 C -1.7714784416676663 0.25963856116480843 -1.7410736617260607 0.2708461625301448 -1.6306066601498992 0.4853441173736611 C -1.5201951417488133 0.6997865890421017 -1.5218041538260152 0.893478353232147 -1.5473818975360156 1.000727330653905 C -1.5522089337676206 1.0263605575389811 -1.544163873381612 1.0599833616349903 -1.537783308247881 1.075962516056856 C -1.536174296170679 1.0919971536537973 -1.561807523055755 1.0871701174221924 -1.5697971002666882 1.0999867308647304 C -1.5777866774776208 1.112803344307269 -1.5777866774776208 1.1992461310755558 -1.8627482646675586 1.1928100827667487 C -1.9587896407239807 1.1864295176330173 -2.062820593991335 1.088779129499394 -2.1156405766636133 1.0071633789627121 C -2.165242535181488 0.9303191814825594 -2.178059148624026 0.8918693411549451 -2.1924847741437663 0.8887068001756174 C -2.206910399663506 0.8854887760212139 -2.2052459044112283 0.8598555491361378 -2.2084639285656316 0.8487034309458775 C -2.2116819527200353 0.8374958295805409 -2.2180625178537663 0.8422673826370705 -2.232488143373506 0.8502569598480031 C -2.246913768893246 0.858302020234012 -2.234097155450708 0.8374958295805409 -2.2373151796051114 0.8246792161380031 C -2.240477720584439 0.8134716147726667 -2.282090101891381 0.9030769425202817 -2.3653148645052644 0.9639419855785684 C -2.4469860982170224 1.0247515454617795 -2.4325604726972827 1.0407306998836452 -2.451813134448628 1.0695819509231246 C -2.4671628232787906 1.092293263973461 -2.475497888883748 1.119015638656022 -2.475781866081426 1.1464261484032776 C -2.4726193251020985 1.1656233269795466 -2.4998060808893006 1.164014314902345 -2.5142317064090407 1.157633749768614 C -2.5158407184862424 1.1736129041904797 -2.5126226943318386 1.1944190948439504 -2.5942384448685205 1.1944190948439504 C -2.680681231636808 1.1864295176330177 -2.6422313913091937 1.1736129041904797 -2.7847121849041625 1.191201070689547 C -2.808736399712037 1.1960281069211525 -2.901559751614055 1.2088447203636905 -2.8983972106347275 1.1672323390567487 C -2.8983972106347275 1.1672323390567487 -2.9479991691526024 1.125619957749807 -2.901559751614055 1.1144123563844701 C -2.855175817250584 1.1032047550191337 -2.8535668051733825 1.1144123563844701 -2.8535668051733825 1.1144123563844701 C -2.8231620252317766 1.0983777187875288 -2.7110860115784137 1.0327411226727126 -2.7110860115784137 1.0327411226727126 C -2.727120649175355 1.0327411226727126 -2.720684600866548 1.0151529561736448 -2.7094769995012116 1.0023363427311072 C -2.698269398135875 0.989519729288569 -2.589466891811991 0.9111220029062904 -2.5558440877159825 0.8791082108874831 C -2.5222212836199733 0.8470944188686761 -2.4741728540042245 0.7878383878875906 -2.4741728540042245 0.7878383878875906 L -2.5398094501190407 0.6997865890421017 C -2.5398094501190407 0.6997865890421017 -2.567051689081319 0.6982330601399759 -2.570269713235722 0.6677727970232944 C -2.5830308435031846 0.650184630524227 -2.5958474569457226 0.6342054761023613 -2.591020420714117 0.6053542250628816 C -2.6150446355219916 0.5637418437559398 -2.727120649175355 0.34924388891242353 -2.727120649175355 0.34924388891242353 L -2.679072219559606 0.2820537638954813 L -2.651885463772404 0.3236661452024232 L -2.5958474569457226 0.3156210848164144 L -2.475781866081426 0.5365550879687379 C -2.475781866081426 0.5365550879687379 -2.4261799075635517 0.5157488973152669 -2.41014526996661 0.5445446651796707 C -2.3941661155447442 0.568568879987545 -2.374968936968475 0.5749494451212761 -2.360543311448735 0.5733404330440743 C -2.3461176859289954 0.5717314209668727 -2.2901351622773896 0.49494270666179596 -2.226107578239775 0.4981052476411235 C -2.1620799942021605 0.501323271795527 -2.0884538208764116 0.549371701411276 -2.0516129926259987 0.5925376116203435 C -2.0340248261269314 0.5797764813528813 -2.01799018852999 0.5637418437559398 -2.01799018852999 0.5637418437559398 C -2.01799018852999 0.5637418437559398 -2.0387963791834607 0.4789080690648543 -1.9955749857993172 0.4324686515263072 C -1.9683882300121152 0.3924652822965672 -1.9363744379933079 0.3332647344905578 -1.9859763965111825 0.3364272754698854 C -2.0212082126843933 0.36849655066376863 -2.055607781231465 0.40289611921084056 -2.106818751826542 0.34763487683522176 C -2.1196353652690796 0.34685811238415876 -2.1220211417973447 0.33803628754708714 -2.120412129720143 0.3340414989416207 C -2.1332287431626806 0.3348737465677595 -2.1420505679997524 0.32682868618175076 -2.1404415559225507 0.3044689666261541 C -2.1484866163085594 0.30763150760548164 -2.1700695714130935 0.3156210848164145 -2.1812771727784295 0.2972561538662841 C -2.1924847741437663 0.2788357397410779 -2.16685154725869 0.28604855250094774 -2.178059148624026 0.238000122885199 C -2.187657737912161 0.20848307374480812 -2.2028046447078875 0.2075953429435934 -2.2028046447078875 0.2075953429435934 C -2.2392016075576926 0.2055979486408599 -2.2637806541163266 0.18240598145912434 -2.2792049767874327 0.15200120151751884" fill="#fbecac" transform="matrix(1,0,0,1,0,0)" fill-rule="nonzero"></path></g><g clip-path="url(&quot;#a14b1099e-ea42-420f-9545-9e4d123e91a0d23e37ff-74f3-4427-aad5-508ec9cd8613&quot;)"><path d=" M -1.5522089337676206 0.869676071124576 L -1.2768459358658173 0.869676071124576 L -1.2768459358658173 -0.31694259422417803 C -1.2768459358658173 -0.3187735390016837 -1.277067868566121 -0.32049351742903703 -1.2772898012664247 -0.32221349585639064 C -1.277067868566121 -0.3239889574588201 -1.2768459358658173 -0.32576441906124964 -1.2768459358658173 -0.32759536383875526 C -1.2768459358658173 -0.3454609462132023 -1.288552885806837 -0.35994205490801806 -1.3030339945016527 -0.35994205490801806 C -1.3085508492215254 -0.35987433306122585 -1.3138550733601848 -0.35780391099966724 -1.3179589685970758 -0.35411632152504613 L -1.511095901036362 -0.35411632152504613 C -1.515199796273253 -0.35780391099966724 -1.5205040204119125 -0.35987433306122585 -1.5260208751317852 -0.35994205490801806 C -1.540501983826601 -0.35994205490801806 -1.5522089337676206 -0.3454609462132023 -1.5522089337676206 -0.32759536383875526 C -1.5522089337676206 -0.32576441906124964 -1.551987001067317 -0.3239889574588201 -1.5517650683670132 -0.32221349585639064 C -1.551987001067317 -0.32049351742903703 -1.5522089337676206 -0.3187735390016837 -1.5522089337676206 -0.31694259422417803 Z" fill="#fbecac" transform="matrix(1,0,0,1,0,0)" fill-rule="nonzero"></path></g><g clip-path="url(&quot;#SvgjsClipPath1000d23e37ff-74f3-4427-aad5-508ec9cd8613&quot;)"><path d=" M -1.2768459358658173 0.8958641297604114 L -1.5522089337676208 0.8958641297604114 L -1.5522089337676208 0.9657729303560737 L -1.2768459358658173 0.9657729303560737 Z" fill="#fbecac" transform="matrix(1,0,0,1,0,0)" fill-rule="nonzero"></path></g><g clip-path="url(&quot;#b14b1099e-ea42-420f-9545-9e4d123e91a0d23e37ff-74f3-4427-aad5-508ec9cd8613&quot;)"><path d=" M -1.5522089337676206 0.9920719553420608 L -1.5522089337676206 1.1559692545163358 C -1.5522089337676206 1.1763870629442752 -1.5386710390490956 1.193142981817204 -1.5221925360515465 1.193142981817204 L -1.3068623335818912 1.193142981817204 C -1.2903838305843423 1.193142981817204 -1.2768459358658173 1.1763870629442752 -1.2768459358658173 1.1559692545163358 L -1.2768459358658173 0.9920719553420608 Z" fill="#fbecac" transform="matrix(1,0,0,1,0,0)" fill-rule="nonzero"></path></g><g clip-path="url(&quot;#b14b1099e-ea42-420f-9545-9e4d123e91a0d23e37ff-74f3-4427-aad5-508ec9cd8613&quot;)"><path d=" M -1.2287420230749924 0.869676071124576 L -0.9533790251731893 0.869676071124576 L -0.9533790251731893 -0.31694259422417803 C -0.9533790251731893 -0.3187735390016837 -0.953600957873493 -0.32049351742903703 -0.9538228905737967 -0.32221349585639064 C -0.953600957873493 -0.3239889574588201 -0.9533790251731893 -0.32576441906124964 -0.9533790251731893 -0.32759536383875526 C -0.9533790251731893 -0.3454609462132023 -0.9650859751142089 -0.35994205490801806 -0.9795670838090247 -0.35994205490801806 C -0.9850839385288974 -0.35987433306122585 -0.9903881626675566 -0.35780391099966724 -0.9944920579044476 -0.35411632152504613 L -1.187628990343734 -0.35411632152504613 C -1.191732885580625 -0.35780391099966724 -1.1970371097192842 -0.35987433306122585 -1.2025539644391572 -0.35994205490801806 C -1.217035073133973 -0.35994205490801806 -1.2287420230749924 -0.3454609462132023 -1.2287420230749924 -0.32759536383875526 C -1.2287420230749924 -0.32576441906124964 -1.2285755735497648 -0.3239889574588201 -1.2282981576743852 -0.32221349585639064 C -1.228520090374689 -0.32049351742903703 -1.2287420230749924 -0.3187735390016837 -1.2287420230749924 -0.31694259422417803 Z" fill="#fbecac" transform="matrix(1,0,0,1,0,0)" fill-rule="nonzero"></path></g><g clip-path="url(&quot;#SvgjsClipPath1000d23e37ff-74f3-4427-aad5-508ec9cd8613&quot;)"><path d=" M -0.9534345083482652 0.8958641297604114 L -1.2287975062500687 0.8958641297604114 L -1.2287975062500687 0.9657729303560737 L -0.9534345083482652 0.9657729303560737 Z" fill="#fbecac" transform="matrix(1,0,0,1,0,0)" fill-rule="nonzero"></path></g><g clip-path="url(&quot;#c14b1099e-ea42-420f-9545-9e4d123e91a0d23e37ff-74f3-4427-aad5-508ec9cd8613&quot;)"><path d=" M -1.2287420230749924 0.9920719553420608 L -1.2287420230749924 1.1559692545163358 C -1.2287420230749924 1.1763870629442752 -1.2152596115315435 1.193142981817204 -1.1987256253589182 1.193142981817204 L -0.9833954228892632 1.193142981817204 C -0.9669169198917142 1.193142981817204 -0.9533790251731893 1.1763870629442752 -0.9533790251731893 1.1559692545163358 L -0.9533790251731893 0.9920719553420608 Z" fill="#fbecac" transform="matrix(1,0,0,1,0,0)" fill-rule="nonzero"></path></g><g clip-path="url(&quot;#c14b1099e-ea42-420f-9545-9e4d123e91a0d23e37ff-74f3-4427-aad5-508ec9cd8613&quot;)"><path d=" M -0.6123794311565698 0.8899274300272876 L -0.3466705057179773 0.8176883360784365 L -0.6578756347188262 -0.32737343113845163 C -0.6583195001194335 -0.3291488927408813 -0.6589852982203444 -0.3307579048180831 -0.6596510963212561 -0.33236691689528464 C -0.6598546763695587 -0.33414593868213815 -0.6601884709236057 -0.33590763216183134 -0.6606497934726225 -0.3376378185274972 C -0.6653103801789997 -0.35489308597610913 -0.6804572869747267 -0.36582327146606597 -0.694383563918783 -0.3620504155609033 C -0.6996983649299438 -0.3605219031729856 -0.7042743474304238 -0.35710964036012754 -0.7072556605363971 -0.35245182627276894 L -0.893623645616421 -0.30179568742845153 C -0.8985593200042183 -0.3043028839898043 -0.904237147731846 -0.3049337537373185 -0.9096028000382868 -0.3035711490308813 C -0.923529076982343 -0.29974280995064245 -0.9310193056175926 -0.28265399202725827 -0.9263587189112152 -0.2653987245786465 C -0.9258402121886453 -0.2637019881396694 -0.9252289781619594 -0.2620349862487082 -0.9245277741337097 -0.26040523882181377 C -0.9243260224006689 -0.2586482663034495 -0.9240109614841467 -0.2569061647650336 -0.9235845601574189 -0.25518982036467663 Z" fill="#fbecac" transform="matrix(1,0,0,1,0,0)" fill-rule="nonzero"></path></g><g clip-path="url(&quot;#SvgjsClipPath1000d23e37ff-74f3-4427-aad5-508ec9cd8613&quot;)"><path d=" M -0.3214330318779597 0.9104971011398445 L -0.3397979628280905 0.8430295602475227 L -0.605506888266683 0.915213171021298 L -0.5871419573165526 0.9827361950886956 Z" fill="#fbecac" transform="matrix(1,0,0,1,0,0)" fill-rule="nonzero"></path></g><g clip-path="url(&quot;#d14b1099e-ea42-420f-9545-9e4d123e91a0d23e37ff-74f3-4427-aad5-508ec9cd8613&quot;)"><path d=" M -0.5802546727876106 1.0079956265888508 L -0.537255212103771 1.1661226755552296 C -0.5319288272964822 1.1858746858822582 -0.5145071103226426 1.1984693666244928 -0.4985279559007769 1.1941416789685704 L -0.29074346524144756 1.1376598067412815 C -0.2748197939946575 1.1333321190853596 -0.26621990185788924 1.113635591933407 -0.2715462866651781 1.0939390647814546 L -0.3145457473490181 0.9357565326399994 Z" fill="#fbecac" transform="matrix(1,0,0,1,0,0)" fill-rule="nonzero"></path></g></g></g><defs><clipPath id="SvgjsClipPath1010"><path d=" M -2.9214227282912355 -0.36280333772236684 h 2.6514227282912355 v 1.5597191754447337 h -2.6514227282912355 Z"></path></clipPath><clipPath id="a14b1099e-ea42-420f-9545-9e4d123e91a0d23e37ff-74f3-4427-aad5-508ec9cd8613"><path d=" M -2.9214227282912355 1.1969158377223668 L -0.2699927577630521 1.1969158377223668 L -0.2699927577630521 -0.3627716968368902 L -2.9214227282912355 -0.3627716968368902 Z"></path></clipPath><clipPath id="SvgjsClipPath1000d23e37ff-74f3-4427-aad5-508ec9cd8613"><path d=" M -2.9214227282912355 -0.3628033377223667 L -0.27 -0.3628033377223667 L -0.27 1.1969158377223668 L -2.9214227282912355 1.1969158377223668 Z"></path></clipPath><clipPath id="b14b1099e-ea42-420f-9545-9e4d123e91a0d23e37ff-74f3-4427-aad5-508ec9cd8613"><path d=" M -2.9214227282912355 1.1969158377223668 L -0.2699927577630521 1.1969158377223668 L -0.2699927577630521 -0.3627716968368902 L -2.9214227282912355 -0.3627716968368902 Z"></path></clipPath><clipPath id="c14b1099e-ea42-420f-9545-9e4d123e91a0d23e37ff-74f3-4427-aad5-508ec9cd8613"><path d=" M -2.9214227282912355 1.1969158377223668 L -0.2699927577630521 1.1969158377223668 L -0.2699927577630521 -0.3627716968368902 L -2.9214227282912355 -0.3627716968368902 Z"></path></clipPath><clipPath id="d14b1099e-ea42-420f-9545-9e4d123e91a0d23e37ff-74f3-4427-aad5-508ec9cd8613"><path d=" M -2.9214227282912355 1.1969158377223668 L -0.2699927577630521 1.1969158377223668 L -0.2699927577630521 -0.3627716968368902 L -2.9214227282912355 -0.3627716968368902 Z"></path></clipPath></defs></svg>