<svg data-name="Layer 1" viewBox="0 0 200 200" xmlns="http://www.w3.org/2000/svg"><path d="M100 18.54C45 18.54 10 52 10 93s35 74.5 90 74.5c9.5 0 22.5-1.5 30-4l29 16.5c6.5 4 15-1 15-8.5v-36c.5-.5.5-1 1-1 10-15 15-22.5 15-41.5 0-41-35-74.46-90-74.46Zm67.5 89a168.37 168.37 0 0 1-10 17c-2 3.5-3.5 7-3.5 11v19L140 146a18.22 18.22 0 0 0-16-1.5c-4.5 1.5-15 2.5-23.5 2.5-47 0-70-27-70-54.5-.5-27 22.5-54 69.5-54s70 27 70 54.5c0 7.5-1 11-2.5 14.5Zm-82.5-14a15 15 0 1 0 15-15 15 15 0 0 0-15 15Zm-40 0a15 15 0 1 0 30 0 15 15 0 0 0-30 0Zm80 0a15 15 0 0 0 30 0 15 15 0 1 0-30 0Z" fill="#ffffff" class="fill-000000"></path></svg>